<svg xmlns="http://www.w3.org/2000/svg" width="24" height="24" viewBox="0 0 24 24" fill="#ffffff"><path d="M12 0c6.6274 0 12 5.3726 12 12s-5.3726 12-12 12S0 18.6274 0 12 5.3726 0 12 0Zm3.1623 4h-2.7508v10.9209a2.3324 2.3324 0 0 1-3.0455 2.2209 2.3324 2.3324 0 0 1 1.4129-4.4459V9.8862a5.0812 5.0812 0 0 0-5.7481 5.5912 5.0805 5.0805 0 0 0 3.802 4.3668 5.0818 5.0818 0 0 0 5.423-2.0286c.5899-.8501.9062-1.86.9065-2.8947V9.3345A6.5666 6.5666 0 0 0 19 10.5614V7.83a3.796 3.796 0 0 1-2.0944-.6295 3.8188 3.8188 0 0 1-1.6852-2.5075 3.7856 3.7856 0 0 1-.058-.693Z" /></svg>